<?xml version="1.0" encoding="utf-8"?>
<!-- Generator: ListediSinistra, SVG Export Plug-In . SVG Version: 6.00 Build 0)  -->
<!DOCTYPE svg PUBLIC "-//W3C//DTD SVG 1.1//EN" "http://www.w3.org/Graphics/SVG/1.1/DTD/svg11.dtd">
<svg version="1.1"
	 id="svg4329"
	 xmlns:rdf="http://www.w3.org/1999/02/22-rdf-syntax-ns#"
	 xmlns:dc="http://purl.org/dc/elements/1.1/"
	 xmlns:cc="http://creativecommons.org/ns#"
	 xmlns:svg="http://www.w3.org/2000/svg"
	 xmlns="http://www.w3.org/2000/svg"
	 xmlns:xlink="http://www.w3.org/1999/xlink"
	 x="0px" y="0px"
	 width="1000px" height="1000px"
	 viewBox="0 0 1000 1000"
	 enable-background="new 0 0 1000 1000"
	 xml:space="preserve">
<path fill="#981009" d="M963.02,515.58c0,51.97-20.19,94.89-60.53,128.75c-21.36,25.6-50.64,54.29-75.49,73.78
	c-75.4,59.14-162.78,94.22-257.57,103.4c-19.77,1.91-56.54,2.64-74.28,1.47C316.11,811.15,157.46,706.63,80.08,549.51
	C-6.39,373.93,20.83,167.64,149.96,19.75C156.08,12.74,161.55,7,162.11,7c0.55,0,0.82,0.34,0.59,0.75s-4.15,7.05-8.71,14.75
	C118.78,81.93,98,143.28,89.48,213c-2.23,18.18-3.09,65.86-1.56,86c11.35,149.33,89.31,281.76,214.58,364.49
	c58.06,38.34,122.72,62.87,192.5,73.03c27.66,4.03,40.94,4.9,74,4.86c48.18-0.06,86.05-4.89,132.55-16.91
	c25.81-6.67,65.09-20.58,84.95-30.07c1.04-0.5,1.9-0.93,2.57-1.31c-17.6,2.74-36.33,4.12-56.2,4.12
	c-60.84,0-115.75-15.73-164.71-47.19l42.73-103.73c45.7,32.06,90.66,48.08,134.89,48.08c67.95,0,101.94-23.74,101.94-71.22
	c0-22.26-8.01-43.48-24.04-63.66c-16.03-20.18-49.04-42.81-99.05-67.89c-50.01-25.08-83.69-45.7-101.05-61.88
	c-17.36-16.17-30.72-35.39-40.07-57.65c-9.34-22.26-14.02-46.89-14.02-73.89c0-50.45,18.48-92.3,55.43-125.54
	c36.94-33.23,84.35-49.86,142.22-49.86c75.38,0,130.73,14.1,166.05,42.29l-35.17,99.72c-40.66-29.08-83.54-43.63-128.65-43.63
	c-26.71,0-47.41,7.06-62.1,21.15c-14.69,14.1-22.04,32.43-22.04,54.98c0,37.39,41.4,76.27,124.21,116.63
	c43.62,21.37,75.07,41.03,94.37,58.98c19.29,17.96,33.98,38.89,44.07,62.77C957.97,459.56,963.02,486.2,963.02,515.58z"/>
<g>
	<path d="M84.095,991.856v-93.709h16.631v78.934h42.345v14.775H84.095z"/>
	<path d="M159.829,991.856v-55.394h-8.763v-13.112h24.946v68.506H159.829z M168.081,896.805c2.559,0,4.743,0.906,6.556,2.719
		c1.812,1.813,2.719,3.997,2.719,6.556s-0.907,4.745-2.719,6.557c-1.813,1.813-3.998,2.719-6.556,2.719s-4.745-0.905-6.556-2.719
		c-1.813-1.812-2.719-3.998-2.719-6.557s0.905-4.743,2.719-6.556C163.336,897.711,165.522,896.805,168.081,896.805z"/>
	<path d="M190.404,987.442l5.693-12.729c4.775,3.796,10.17,5.693,16.183,5.693c6.226,0,9.339-2.217,9.339-6.652
		c0-2.601-0.938-4.734-2.814-6.396c-1.877-1.664-5.523-3.624-10.938-5.885c-11.813-4.903-17.718-11.77-17.718-20.598
		c0-5.926,2.26-10.543,6.78-13.848c4.52-3.305,10.298-4.957,17.334-4.957c7.121,0,13.816,1.599,20.085,4.797l-4.605,12.409
		c-3.497-2.984-8.358-4.478-14.584-4.478c-5.587,0-8.379,2.218-8.379,6.652c0,1.749,0.917,3.326,2.75,4.733
		c1.833,1.407,5.757,3.294,11.77,5.661c6.013,2.366,10.34,5.235,12.985,8.604c2.644,3.369,3.966,7.441,3.966,12.217
		c0,6.354-2.357,11.354-7.068,15c-4.713,3.646-11.12,5.469-19.222,5.469c-4.563,0-8.22-0.374-10.97-1.119
		C198.24,991.271,194.711,989.745,190.404,987.442z"/>
	<path d="M253.474,936.207h-7.932v-12.856h7.932v-13.945l15.991-5.885v19.83h18.806v12.856h-18.806v29.999
		c0,4.905,0.768,8.37,2.303,10.395c1.535,2.026,4.222,3.039,8.06,3.039s7.42-1.045,10.746-3.135v14.712
		c-3.71,1.279-8.998,1.919-15.863,1.919c-6.823,0-12.068-1.929-15.735-5.789c-3.668-3.858-5.501-9.349-5.501-16.471V936.207z"/>
	<path d="M364.133,962.497H315.2c0.298,5.459,2.175,9.701,5.629,12.729c3.454,3.028,8.102,4.541,13.944,4.541
		c7.292,0,12.835-1.896,16.631-5.692l6.205,12.218c-5.629,4.563-14.03,6.844-25.202,6.844c-10.448,0-18.709-3.06-24.787-9.179
		c-6.076-6.119-9.115-14.658-9.115-25.618c0-10.788,3.336-19.53,10.01-26.226c6.673-6.694,14.68-10.042,24.019-10.042
		c9.936,0,17.91,2.964,23.923,8.891c6.013,5.928,9.019,13.476,9.019,22.644C365.476,955.567,365.028,958.53,364.133,962.497z
		 M315.775,950.472h33.646c-1.109-10.021-6.652-15.032-16.631-15.032C323.664,935.439,317.992,940.451,315.775,950.472z"/>
	<path d="M422.341,991.856v-4.158c-1.322,1.451-3.561,2.719-6.716,3.807c-3.156,1.087-6.418,1.631-9.787,1.631
		c-9.553,0-17.069-3.027-22.548-9.083c-5.48-6.055-8.219-14.498-8.219-25.33c0-10.831,3.144-19.647,9.435-26.449
		c6.289-6.802,14.168-10.202,23.635-10.202c5.202,0,9.936,1.066,14.2,3.197v-27.44l15.991-3.838v97.866H422.341z M422.341,939.726
		c-3.412-2.729-6.972-4.094-10.682-4.094c-6.396,0-11.322,1.95-14.776,5.853c-3.454,3.901-5.181,9.499-5.181,16.79
		c0,14.244,6.865,21.365,20.597,21.365c1.535,0,3.422-0.458,5.661-1.376c2.239-0.916,3.699-1.844,4.382-2.782V939.726z"/>
	<path d="M458.609,991.856v-55.394h-8.763v-13.112h24.946v68.506H458.609z M466.86,896.805c2.559,0,4.743,0.906,6.556,2.719
		c1.812,1.813,2.719,3.997,2.719,6.556s-0.907,4.745-2.719,6.557c-1.813,1.813-3.998,2.719-6.556,2.719s-4.745-0.905-6.556-2.719
		c-1.813-1.812-2.719-3.998-2.719-6.557s0.905-4.743,2.719-6.556C462.116,897.711,464.302,896.805,466.86,896.805z"/>
	<path fill="#981009" d="M489.888,986.675l6.141-14.903c6.566,4.605,13.026,6.908,19.382,6.908c9.764,0,14.647-3.411,14.647-10.234
		c0-3.198-1.151-6.246-3.454-9.147c-2.303-2.898-7.047-6.15-14.232-9.754s-12.025-6.566-14.52-8.892
		c-2.495-2.323-4.414-5.085-5.757-8.283c-1.344-3.198-2.015-6.737-2.015-10.618c0-7.249,2.655-13.262,7.963-18.038
		c5.31-4.775,12.121-7.164,20.438-7.164c10.83,0,18.783,2.026,23.858,6.077l-5.054,14.328c-5.842-4.179-12.004-6.27-18.485-6.27
		c-3.838,0-6.813,1.014-8.923,3.039c-2.111,2.025-3.166,4.659-3.166,7.899c0,5.373,5.948,10.96,17.846,16.759
		c6.269,3.07,10.788,5.896,13.561,8.476c2.771,2.58,4.883,5.587,6.332,9.019c1.449,3.434,2.176,7.26,2.176,11.482
		c0,7.591-2.997,13.838-8.987,18.741c-5.992,4.904-14.02,7.356-24.083,7.356C504.813,993.456,496.924,991.196,489.888,986.675z"/>
	<path fill="#981009" d="M564.662,991.856v-55.394h-8.763v-13.112h24.946v68.506H564.662z M572.914,896.805
		c2.559,0,4.743,0.906,6.557,2.719c1.812,1.813,2.719,3.997,2.719,6.556s-0.907,4.745-2.719,6.557
		c-1.813,1.813-3.998,2.719-6.557,2.719s-4.744-0.905-6.557-2.719c-1.813-1.812-2.719-3.998-2.719-6.557s0.906-4.743,2.719-6.556
		S570.355,896.805,572.914,896.805z"/>
	<path fill="#981009" d="M643.531,991.856v-39.594c0-5.842-1.119-10.107-3.358-12.793c-2.238-2.688-5.896-4.03-10.97-4.03
		c-2.346,0-4.852,0.662-7.516,1.983c-2.666,1.322-4.744,2.964-6.236,4.925v49.509h-15.992v-68.506h11.514l2.943,6.396
		c4.35-5.117,10.767-7.676,19.253-7.676c8.145,0,14.573,2.441,19.285,7.323c4.712,4.884,7.068,11.696,7.068,20.437v42.025H643.531z"
		/>
	<path fill="#981009" d="M681.078,991.856v-55.394h-8.763v-13.112h24.946v68.506H681.078z M689.33,896.805
		c2.559,0,4.743,0.906,6.557,2.719c1.812,1.813,2.719,3.997,2.719,6.556s-0.907,4.745-2.719,6.557
		c-1.813,1.813-3.998,2.719-6.557,2.719s-4.744-0.905-6.557-2.719c-1.813-1.812-2.719-3.998-2.719-6.557s0.906-4.743,2.719-6.556
		S686.771,896.805,689.33,896.805z"/>
	<path fill="#981009" d="M711.654,987.442l5.692-12.729c4.775,3.796,10.171,5.693,16.183,5.693c6.227,0,9.34-2.217,9.34-6.652
		c0-2.601-0.939-4.734-2.814-6.396c-1.877-1.664-5.523-3.624-10.938-5.885c-11.813-4.903-17.718-11.77-17.718-20.598
		c0-5.926,2.26-10.543,6.779-13.848s10.299-4.957,17.335-4.957c7.121,0,13.816,1.599,20.085,4.797l-4.605,12.409
		c-3.497-2.984-8.358-4.478-14.584-4.478c-5.587,0-8.379,2.218-8.379,6.652c0,1.749,0.916,3.326,2.75,4.733
		c1.833,1.407,5.757,3.294,11.77,5.661c6.013,2.366,10.34,5.235,12.984,8.604c2.645,3.369,3.967,7.441,3.967,12.217
		c0,6.354-2.357,11.354-7.068,15c-4.713,3.646-11.12,5.469-19.222,5.469c-4.563,0-8.22-0.374-10.97-1.119
		C719.489,991.271,715.961,989.745,711.654,987.442z"/>
	<path fill="#981009" d="M774.723,936.207h-7.932v-12.856h7.932v-13.945l15.992-5.885v19.83h18.805v12.856h-18.805v29.999
		c0,4.905,0.768,8.37,2.303,10.395c1.535,2.026,4.221,3.039,8.059,3.039s7.42-1.045,10.746-3.135v14.712
		c-3.709,1.279-8.998,1.919-15.863,1.919c-6.822,0-12.068-1.929-15.734-5.789c-3.668-3.858-5.502-9.349-5.502-16.471V936.207z"/>
	<path fill="#981009" d="M863.826,938.254c-2.857-1.876-5.992-2.814-9.402-2.814c-3.711,0-7.005,1.686-9.883,5.054
		c-2.879,3.369-4.318,7.483-4.318,12.345v39.019h-15.99v-68.506h15.99v6.268c4.479-5.03,10.427-7.547,17.847-7.547
		c5.458,0,9.637,0.831,12.537,2.494L863.826,938.254z"/>
	<path fill="#981009" d="M914.23,985.013c-1.45,2.389-3.977,4.339-7.58,5.853c-3.604,1.513-7.367,2.271-11.289,2.271
		c-7.379,0-13.178-1.844-17.398-5.533c-4.223-3.688-6.333-8.923-6.333-15.703c0-7.932,2.974-14.137,8.923-18.613
		c5.949-4.479,14.402-6.717,25.362-6.717c1.876,0,4.094,0.32,6.652,0.959c0-8.059-5.097-12.089-15.288-12.089
		c-6.012,0-11.045,1.003-15.096,3.007l-3.453-12.41c5.5-2.643,12.046-3.965,19.637-3.965c10.447,0,18.102,2.377,22.963,7.132
		s7.293,13.764,7.293,27.024v14.648c0,9.126,1.832,14.862,5.5,17.207c-1.322,2.303-2.793,3.721-4.413,4.253
		c-1.621,0.533-3.476,0.8-5.565,0.8c-2.303,0-4.371-0.854-6.204-2.559C916.106,988.872,914.87,987.018,914.23,985.013z
		 M912.695,959.618c-2.729-0.554-4.776-0.832-6.141-0.832c-12.623,0-18.934,4.138-18.934,12.41c0,6.141,3.561,9.211,10.682,9.211
		c9.596,0,14.393-4.798,14.393-14.393V959.618z"/>
</g>
<g>
	<path d="M210.59,506.431V199.975h62.387v254.396h155.125v52.06H210.59z"/>
	<path d="M677.441,506.431h-55.011v-32.88c-9.136,12.788-19.917,22.309-32.353,28.56c-12.436,6.25-24.977,9.379-37.623,9.379
		c-25.713,0-47.738-10.36-66.075-31.088c-18.336-20.725-27.505-49.636-27.505-86.731c0-37.938,8.921-66.777,26.768-86.52
		c17.843-19.74,40.395-29.613,67.656-29.613c25.009,0,46.648,10.4,64.916,31.193V197.445h59.227V506.431z M519.365,389.666
		c0,23.889,3.3,41.172,9.906,51.849c9.554,15.458,22.9,23.185,40.045,23.185c13.629,0,25.221-5.796,34.777-17.388
		c9.554-11.592,14.332-28.908,14.332-51.955c0-25.713-4.637-44.225-13.91-55.537c-9.273-11.309-21.149-16.967-35.62-16.967
		c-14.052,0-25.819,5.585-35.304,16.756C524.107,350.779,519.365,367.466,519.365,389.666z"/>
</g>
</svg>
